<svg width="64" height="64" viewBox="0 0 64 64" fill="none" xmlns="http://www.w3.org/2000/svg">
<path d="M34.1912 39.6802H30.1912V56.4977C28.7757 52.6207 25.0691 49.8202 20.7112 49.8202H16.5712C16.2512 49.8202 16.0112 50.0802 16.0112 50.3802V51.2202C16.0112 56.0202 19.9112 59.9202 24.5312 59.9602L30.2912 59.9802C30.3593 59.9802 30.4251 59.966 30.4853 59.9402H34.1015C34.1656 59.9659 34.2362 59.9802 34.3112 59.9802H38.4512C43.8512 59.9802 48.2512 55.6802 48.5312 50.3602C48.5512 50.0602 48.3112 49.8202 48.0312 49.8202L42.2712 49.8402C38.5725 49.8722 35.3352 52.3783 34.1912 55.8396V39.6802Z" fill="#86D72F"/>
<path d="M32.1111 4C27.4111 4 23.7311 8.04 24.1711 12.72L24.5311 16.54L20.5711 15.18C16.1311 13.64 11.3511 16.26 10.2311 20.82C9.13108 25.32 12.0711 29.8 16.6511 30.58L20.2111 31.18L17.2911 34.78C14.3311 38.42 15.1311 43.82 19.0511 46.44C22.8911 49.02 28.1311 47.78 30.4311 43.76L32.2511 40.86L33.7311 43.76C36.0311 47.78 41.2511 49.02 45.1111 46.44C49.0111 43.82 49.8311 38.42 46.8711 34.78L43.9911 31.22L47.7911 30.58C52.3511 29.8 55.3111 25.32 54.2111 20.82C53.0911 16.26 48.2911 13.64 43.8511 15.18L39.8511 16.56L40.1311 12.54C40.3911 7.94 36.7311 4 32.1111 4Z" fill="#D3D3D3"/>
<path d="M31.9912 34.7201C36.1664 34.7201 39.5512 31.3354 39.5512 27.1601C39.5512 22.9848 36.1664 19.6001 31.9912 19.6001C27.8159 19.6001 24.4312 22.9848 24.4312 27.1601C24.4312 31.3354 27.8159 34.7201 31.9912 34.7201Z" fill="#FFB02E"/>
</svg>
