<svg width="64" height="64" viewBox="0 0 64 64" fill="none" xmlns="http://www.w3.org/2000/svg">
<path d="M43.0305 8.49034C40.9305 10.6303 40.9305 14.1903 43.1305 16.3903L43.3533 16.6131C43.2135 16.7884 43.0836 16.9721 42.9647 17.1634C41.5179 16.3136 39.3931 16.5615 37.8505 18.1304L17.6905 38.7304C16.2496 40.2083 15.9917 42.1563 16.6927 43.5565C16.5196 43.6667 16.3529 43.7858 16.1933 43.9132L15.9705 43.6904C13.7705 41.4904 10.2105 41.4904 8.07049 43.5904L5.43049 46.2104C5.29049 46.3504 5.31049 46.5504 5.45049 46.6904C7.96681 48.9512 11.8551 48.9511 14.3232 46.6143C14.1657 47.1099 14.0777 47.6327 14.0705 48.1704V51.8904C14.0705 52.0704 14.2305 52.2304 14.4105 52.2104C17.8505 52.0304 20.6305 49.1904 20.6305 45.6904V45.5725L46.6105 50.2704C46.7505 50.3104 46.8705 50.4104 46.8905 50.5504L48.5105 58.8304C48.7505 60.0104 50.2305 60.3104 51.1905 59.3504L59.4305 51.1104C60.3905 50.1504 60.0905 48.6704 58.9105 48.4304L53.7905 47.4304L50.4705 46.7904C50.3305 46.7704 50.2105 46.6704 50.1905 46.5304L44.8509 21.0504H45.1305C48.6305 21.0504 51.4705 18.2704 51.6505 14.8304C51.6705 14.6504 51.5105 14.4904 51.3305 14.4904H47.6105C47.0727 14.4976 46.55 14.5856 46.0543 14.7431C48.3912 12.275 48.3913 8.38667 46.1305 5.87034C45.9905 5.73034 45.7905 5.73034 45.6505 5.85034L43.0305 8.49034Z" fill="#44911B"/>
<path d="M46.8281 50.4064L47.2812 52.5705L52.6452 47.208L50.3745 46.7722L46.8281 50.4064Z" fill="#00A6ED"/>
<path d="M34.4504 24.0704L43.7304 20.2104L41.4304 14.6904C39.9904 11.2304 37.2304 8.49037 33.7504 7.09037C33.1104 6.83037 32.3904 7.15037 32.1304 7.77037C30.7104 11.2104 30.7104 15.0504 32.1304 18.4904L34.4504 24.0704Z" fill="#F70A8D"/>
<path d="M24.0704 33.9703L20.2104 43.2503L14.6904 40.9503C11.2304 39.5103 8.49037 36.7503 7.09037 33.2703C6.83037 32.6303 7.15037 31.9103 7.77037 31.6503C11.2104 30.2303 15.0504 30.2303 18.4904 31.6503L24.0704 33.9703Z" fill="#F70A8D"/>
<path d="M40.2504 4.05037C40.6704 3.87037 41.2104 4.19037 41.4304 4.73037L43.9304 10.7304C44.6104 12.3904 45.2704 14.9504 45.2504 16.5304C45.2704 20.4304 43.1304 22.9904 39.9704 24.3104C36.5504 25.7104 32.8904 25.1304 30.0904 21.8504C29.4304 21.0704 28.4704 19.3104 27.9704 18.3304C27.7904 17.9904 27.6304 17.6304 27.4704 17.2704L27.4904 17.2704L25.1104 11.5304C24.8904 10.9704 25.0504 10.3704 25.4904 10.1904C28.5104 8.93037 32.9304 12.2704 35.8704 16.1304C36.3904 16.8104 37.2304 16.4704 37.1104 15.6304C36.4504 10.8104 37.2104 5.29037 40.2504 4.05037Z" fill="#FF6DC6"/>
<path d="M4.05037 39.7703C3.87037 40.1903 4.19037 40.7303 4.73037 40.9503L10.7304 43.4503C12.3904 44.1303 14.9504 44.7903 16.5304 44.7703C20.4304 44.7903 22.9904 42.6503 24.3104 39.4903C25.7104 36.0703 25.1304 32.4103 21.8504 29.6103C21.0704 28.9503 19.3104 27.9903 18.3304 27.4903C17.9904 27.3103 17.6304 27.1503 17.2704 26.9903L17.2704 27.0103L11.5304 24.6303C10.9704 24.4103 10.3704 24.5703 10.1904 25.0103C8.93037 28.0303 12.2704 32.4503 16.1304 35.3903C16.8104 35.9103 16.4704 36.7503 15.6304 36.6303C10.8104 35.9703 5.29037 36.7303 4.05037 39.7703Z" fill="#FF6DC6"/>
<path d="M16.6904 32.0304C15.4304 30.0304 16.1504 27.3904 18.2504 26.3304L20.1504 25.3704L18.5904 24.0704C16.8104 22.5704 16.6704 19.8904 18.2704 18.2104C19.9104 16.5104 22.6504 16.5904 24.1904 18.3704L25.4504 19.8304L26.3304 17.9304C27.3304 15.7904 29.9304 14.9704 31.9704 16.1504C33.9704 17.3104 34.5704 19.9504 33.2704 21.8704L32.2504 23.3704L34.5704 23.5704C36.9104 23.7704 38.5904 25.9304 38.1704 28.2504C37.7704 30.5304 35.4904 31.9904 33.2504 31.4304L31.5704 31.0704L32.0904 32.6104C32.7504 34.8304 31.3704 37.1504 29.1104 37.6504C26.8104 38.1504 24.5704 36.5704 24.2904 34.2304L23.9904 31.9504L22.4304 33.0904C20.5704 34.4904 17.9304 33.9904 16.6904 32.0304Z" fill="#FFF478"/>
<path d="M26.1504 29.6303C28.238 29.6303 29.9304 27.9379 29.9304 25.8503C29.9304 23.7627 28.238 22.0703 26.1504 22.0703C24.0627 22.0703 22.3704 23.7627 22.3704 25.8503C22.3704 27.9379 24.0627 29.6303 26.1504 29.6303Z" fill="#FFB02E"/>
</svg>
