<svg width="366" height="560" viewBox="0 0 366 560" fill="none" xmlns="http://www.w3.org/2000/svg">
<path d="M280.717 68.5714C275.513 68.5714 271.039 65.0099 269.256 60.1107C256.495 25.0404 222.916 0 183.5 0C144.084 0 110.505 25.0404 97.7439 60.1107C95.9612 65.0099 91.487 68.5714 86.2825 68.5714H46.625C21.427 68.5714 1 89.0384 1 114.286V560H366V114.286C366 89.0384 345.573 68.5714 320.375 68.5714H280.717Z" fill="#111111"/>
<path d="M18.4545 539.023V121.475C18.4545 102.201 34.335 86.5769 53.9246 86.5769H97.0412C105.878 86.5769 112.85 79.3145 114.881 70.7146C122.181 39.8096 150.348 16.7815 183.981 16.7815C217.615 16.7815 245.781 39.8096 253.081 70.7146C255.113 79.3145 262.085 86.5769 270.921 86.5769H314.038C333.628 86.5769 349.508 102.201 349.508 121.475V539.023" stroke="#333333" stroke-width="10" stroke-linecap="round"/>
</svg>
