<svg width="64" height="64" viewBox="0 0 64 64" fill="none" xmlns="http://www.w3.org/2000/svg">
<path d="M50.5019 30.9905C43.1019 27.2905 33.7219 30.3705 29.8419 38.0105L29.1419 39.3705C28.9686 39.7039 28.9997 40.0818 29.188 40.3736C28.9175 40.551 28.7419 40.8568 28.7419 41.2105V42.7305C28.7419 51.2905 35.7019 58.2905 43.9619 58.3505L54.2619 58.3705C54.7819 58.3705 55.1819 57.9305 55.1619 57.4105C54.9116 52.6444 52.8115 48.3394 49.5669 45.2285C53.8558 43.9188 57.6647 41.0358 60.0419 36.9105C60.3019 36.4505 60.1419 35.8905 59.6819 35.6505L50.5019 30.9905Z" fill="#86D72F"/>
<path d="M49.822 16.2107C46.682 14.5307 43.122 14.5507 40.122 15.9307C40.422 12.6907 39.322 9.3507 36.762 6.9507C32.362 2.8307 25.442 3.0507 21.302 7.4507C18.942 9.9707 18.042 13.3107 18.502 16.4907C15.502 15.4507 12.062 15.7307 9.16201 17.5307C4.04201 20.7107 2.46201 27.4507 5.64201 32.5907C7.26201 35.2107 9.82201 36.8907 12.602 37.4907C11.182 39.8107 10.622 42.6707 11.262 45.5307C12.562 51.4307 18.402 55.1507 24.302 53.8307C26.962 53.2507 29.182 51.7307 30.682 49.6907C32.362 51.6107 34.722 52.9707 37.462 53.3507C43.442 54.1507 48.942 49.9507 49.762 43.9707C50.142 41.1507 49.402 38.4307 47.882 36.2707C50.542 35.4507 52.902 33.6307 54.322 30.9707C57.162 25.6707 55.142 19.0507 49.822 16.2107Z" fill="#FF6DC6"/>
<path d="M41.682 21.4305C39.822 20.4305 37.702 20.4505 35.922 21.2705C36.142 18.9105 35.102 16.4505 32.742 15.0505C30.642 13.8105 27.922 13.8905 25.902 15.2705C23.642 16.7905 22.762 19.2705 23.102 21.6105C21.022 20.8905 18.582 21.2305 16.702 22.8505C14.682 24.5905 13.942 27.5705 14.922 30.0505C15.782 32.2305 17.582 33.6305 19.602 34.0705C18.562 35.7905 18.302 37.9905 19.222 40.1105C20.242 42.3905 22.602 43.9305 25.102 43.9305C27.322 43.9105 29.162 42.8705 30.322 41.3305C32.202 43.4905 35.522 44.4505 39.082 42.5105C40.742 41.6105 41.682 39.8105 41.622 37.9305C41.842 36.2505 41.402 34.6505 40.502 33.3705C42.082 32.8905 43.482 31.8105 44.322 30.2305C46.022 27.0505 44.842 23.1105 41.682 21.4305Z" fill="#F70A8D"/>
<path d="M29.8019 32.9509C31.9558 32.9509 33.7019 31.2048 33.7019 29.0509C33.7019 26.897 31.9558 25.1509 29.8019 25.1509C27.6479 25.1509 25.9019 26.897 25.9019 29.0509C25.9019 31.2048 27.6479 32.9509 29.8019 32.9509Z" fill="#FFF478"/>
<path d="M29.7021 30.1507C29.4221 30.1507 29.1421 30.0307 28.9421 29.8107L21.3821 21.1507C21.0221 20.7307 21.0621 20.0907 21.4821 19.7307C21.9021 19.3707 22.5221 19.4107 22.9021 19.8307L30.4821 28.4907C30.8421 28.9107 30.8021 29.5307 30.3821 29.9107C30.1821 30.0507 29.9421 30.1507 29.7021 30.1507Z" fill="#F9C23C"/>
<path d="M20.8235 19.5406C21.3647 19.5406 21.8035 19.1018 21.8035 18.5606C21.8035 18.0193 21.3647 17.5806 20.8235 17.5806C20.2822 17.5806 19.8435 18.0193 19.8435 18.5606C19.8435 19.1018 20.2822 19.5406 20.8235 19.5406Z" fill="#FFF478"/>
<path d="M23.0435 19.7206C23.5847 19.7206 24.0235 19.2818 24.0235 18.7406C24.0235 18.1993 23.5847 17.7606 23.0435 17.7606C22.5022 17.7606 22.0635 18.1993 22.0635 18.7406C22.0635 19.2818 22.5022 19.7206 23.0435 19.7206Z" fill="#FFF478"/>
<path d="M21.5035 20.9206C21.5035 21.4618 21.0647 21.9006 20.5235 21.9006C19.9822 21.9006 19.5435 21.4618 19.5435 20.9206C19.5435 20.3793 19.9822 19.9406 20.5235 19.9406C21.0647 19.9406 21.5035 20.3793 21.5035 20.9206Z" fill="#FFF478"/>
<path d="M22.3235 23.5006C22.8647 23.5006 23.3035 23.0618 23.3035 22.5206C23.3035 21.9793 22.8647 21.5406 22.3235 21.5406C21.7822 21.5406 21.3435 21.9793 21.3435 22.5206C21.3435 23.0618 21.7822 23.5006 22.3235 23.5006Z" fill="#FFF478"/>
<path d="M25.2435 20.7206C25.2435 21.2618 24.8047 21.7006 24.2635 21.7006C23.7222 21.7006 23.2835 21.2618 23.2835 20.7206C23.2835 20.1793 23.7222 19.7406 24.2635 19.7406C24.8047 19.7406 25.2435 20.1793 25.2435 20.7206Z" fill="#FFF478"/>
</svg>
