<svg width="160" height="161" viewBox="0 0 160 161" fill="none" xmlns="http://www.w3.org/2000/svg">
<path d="M101.308 30.5C100.167 30.5 99.1866 29.7209 98.7959 28.6492C95.999 20.9776 88.6392 15.5 80 15.5C71.3608 15.5 64.001 20.9776 61.2041 28.6492C60.8134 29.7209 59.8328 30.5 58.6921 30.5H50C44.4772 30.5 40 34.9772 40 40.5V125.5H35C32.2386 125.5 30 127.739 30 130.5V138H130V130.5C130 127.739 127.761 125.5 125 125.5H120V40.5C120 34.9772 115.523 30.5 110 30.5H101.308Z" fill="#999999"/>
<path d="M80 25.5C74.4772 25.5 70 29.9772 70 35.5V35.8571C70 38.4213 67.9213 40.5 65.3571 40.5H52.5C51.1193 40.5 50 41.6193 50 43V125.5H45V43C45 38.8579 48.3579 35.5 52.5 35.5H65C65 27.2157 71.7157 20.5 80 20.5C88.2843 20.5 95 27.2157 95 35.5H107.5C111.642 35.5 115 38.8579 115 43V125.5H110V43C110 41.6193 108.881 40.5 107.5 40.5H94.6429C92.0787 40.5 90 38.4213 90 35.8571V35.5C90 29.9772 85.5228 25.5 80 25.5Z" fill="#666666"/>
<path d="M10 137.5C10 136.395 10.8954 135.5 12 135.5H148C149.105 135.5 150 136.395 150 137.5V150.5H10V137.5Z" fill="#00dc82"/>
</svg>
