<svg width="64" height="64" viewBox="0 0 64 64" fill="none" xmlns="http://www.w3.org/2000/svg">
<path d="M30 60H37.7333C44.2857 60 49.6594 54.9097 49.999 48.6387C50.0189 48.2903 49.7593 48 49.3997 48L42.3879 48.0194C38.9798 48.0428 35.9008 49.745 34 52.3376L34 44L36.68 42.7C37.22 42.44 37.22 41.66 36.68 41.4L34 40.06V36.46H30V49.92L27.3 51.26C26.76 51.52 26.76 52.3 27.3 52.56L30 53.9L30 60Z" fill="#86D72F"/>
<path d="M29.5799 24.26H31.2999C31.3799 24.26 31.4599 24.24 31.5399 24.22C31.6799 24.28 31.8199 24.34 31.9799 24.34H33.7199C37.9799 24.34 41.4399 20.88 41.4399 16.62V5.08C41.4399 4.52 40.9999 4.08 40.4399 4.08H38.6999C35.5599 4.08 32.8799 5.96 31.6599 8.64C30.4799 5.9 27.7799 4 24.6199 4H22.8999C22.3199 4 21.8599 4.46 21.8599 5.02V16.54C21.8599 20.8 25.3199 24.26 29.5799 24.26Z" fill="#CA0B4A"/>
<path d="M22 9C22 9 28 9 32 15C36 9 42 9 42 9H44.2251C45.5903 9 46.4422 10.2927 45.8352 11.5154C44.968 13.2621 44 15.4236 44 18C44 19.8885 44.4459 21.1084 44.9165 22.3961C45.4428 23.8359 46 25.3607 46 28C46 33 44 38 32 38C20 38 18 33 18 28C18 25.9385 18.5 24.4692 19 23C19.5 21.5308 20 20.0616 20 18C20 15.5973 19.2784 13.5553 18.4853 11.8742C17.8509 10.5296 18.7493 9 20.2361 9H22Z" fill="#F8312F"/>
</svg>
