<svg width="64" height="64" viewBox="0 0 64 64" fill="none" xmlns="http://www.w3.org/2000/svg">
<path d="M34.2129 39.5005H30.2129V55.9564C28.7041 52.2681 25.094 49.6406 20.8729 49.6406H16.7329C16.4129 49.6406 16.1729 49.9006 16.1729 50.2006V51.0406C16.1729 55.8406 20.0729 59.7406 24.6929 59.7806L30.4529 59.8006C30.5211 59.8006 30.5869 59.7864 30.6472 59.7605H34.2129V59.7474C34.2848 59.7814 34.3659 59.8006 34.4528 59.8006H38.5928C43.9928 59.8006 48.3928 55.5006 48.6728 50.1806C48.6928 49.8806 48.4528 49.6406 48.1728 49.6406L42.4128 49.6606C38.5752 49.6939 35.2343 52.3905 34.2129 56.0539V39.5005Z" fill="#44911B"/>
<path d="M47.6929 23.5607C51.5129 24.6207 54.1529 26.7607 53.8929 28.9007C53.6329 31.0407 50.5729 32.4607 46.6329 32.5807C49.2729 35.5407 50.3329 38.7807 48.9329 40.4407C47.5529 42.0807 44.2129 41.6007 40.8529 39.5407C41.4529 43.4607 40.5529 46.7607 38.4929 47.3807C36.4329 48.0007 33.8929 45.7807 32.1929 42.2207C30.5529 45.8407 28.0329 48.1207 25.9529 47.5207C23.8929 46.9207 22.9529 43.6607 23.4729 39.7607C20.1329 41.9007 16.7729 42.4407 15.3529 40.8007C13.9329 39.1607 14.9329 35.9407 17.4929 32.9407C13.5129 32.9007 10.4129 31.5207 10.1129 29.3807C9.81287 27.2407 12.4129 25.0807 16.1929 23.9607C12.8729 21.7807 11.0329 18.9207 11.9329 16.9807C12.8729 14.9807 16.3529 14.5807 20.2329 15.8207C18.5729 12.1207 18.5529 8.60068 20.4129 7.44068C22.1929 6.32068 25.1729 7.74068 27.6929 10.6407C28.3729 6.86068 30.1929 4.14068 32.3129 4.20068C34.2729 4.22068 35.9129 6.62068 36.5729 10.0207C38.9529 7.48068 41.6329 6.30068 43.3129 7.32068C45.1529 8.42068 45.2129 11.8007 43.6929 15.4407C47.4729 14.2407 50.8529 14.6007 51.7929 16.5407C52.7329 18.4607 50.9529 21.3407 47.6929 23.5607Z" fill="#FCD53F"/>
<path d="M32 38C38.4738 38 43.7219 32.7519 43.7219 26.2781C43.7219 19.8042 38.4738 14.5562 32 14.5562C25.5262 14.5562 20.2781 19.8042 20.2781 26.2781C20.2781 32.7519 25.5262 38 32 38Z" fill="#8C5543"/>
<path d="M42.2366 20.5627L40.6363 22.1631L42.8699 24.3967L43.4607 23.8059C43.6319 24.6029 43.7219 25.4299 43.7219 26.2781C43.7219 26.8484 43.6812 27.4092 43.6025 27.9577L42.8699 27.2251L40.6413 29.4538L42.561 31.3704C41.4988 33.5692 39.7702 35.3858 37.6373 36.558L35.5837 34.5113L33.3715 36.7235L34.4017 37.7537C33.6264 37.9152 32.8231 38 32 38C31.1519 38 30.3248 37.9099 29.5278 37.7388L30.5431 36.7235L28.3094 34.4899L26.2847 36.5147C24.767 35.6655 23.4576 34.4887 22.4522 33.0799L24.6716 35.2993L26.8952 33.0757L24.6716 30.8521L22.4487 33.075C22.0499 32.5156 21.699 31.9197 21.4021 31.2932L23.2574 29.4379L21.0342 27.2147L20.3845 27.8644C20.3143 27.3456 20.2781 26.8161 20.2781 26.2781C20.2781 25.4549 20.3629 24.6516 20.5243 23.8764L21.0342 24.3863L23.2255 22.195L21.701 20.6757C22.0281 20.0756 22.4062 19.5073 22.8293 18.9765L24.6397 20.7808L26.8798 18.5407L25.1216 16.7854C25.6765 16.3826 26.2682 16.0273 26.8906 15.7254L28.294 17.1265L30.5326 14.8878L30.3204 14.6756C30.8689 14.5969 31.4297 14.5562 32 14.5562C32.538 14.5562 33.0676 14.5924 33.5863 14.6626L33.3611 14.8878L35.5843 17.111L37.0152 15.6801C37.6416 15.9771 38.2375 16.328 38.7969 16.7268L36.9985 18.5252L39.2221 20.7488L41.092 18.8789C41.5201 19.4043 41.9036 19.9675 42.2366 20.5627ZM41.4522 33.0895L39.227 30.868L36.9979 33.0971L39.225 35.3167L41.4522 33.0895ZM22.4484 25.8005L24.6716 28.0237L26.8691 25.8262L24.6421 23.6068L22.4484 25.8005ZM26.0563 22.1926L28.2833 24.412L30.5201 22.1752L28.2951 19.9538L26.0563 22.1926ZM29.7093 18.5396L31.9343 20.761L34.17 18.5252L31.9469 16.302L29.7093 18.5396ZM33.3497 22.174L35.5751 24.3958L37.8079 22.1631L35.5843 19.9395L33.3497 22.174ZM29.6999 25.8238L31.9273 28.0437L34.1609 25.81L31.9355 23.5882L29.6999 25.8238ZM26.0858 29.4379L28.3094 31.6615L30.5131 29.4579L28.2857 27.238L26.0858 29.4379ZM41.4557 25.8109L39.2221 23.5773L36.9905 25.8089L39.2259 28.0407L41.4557 25.8109ZM37.8117 29.4549L35.5763 27.2231L33.3439 29.4555L35.5813 31.6853L37.8117 29.4549ZM34.1671 33.0995L31.9297 30.8697L29.7236 33.0757L31.9573 35.3093L34.1671 33.0995Z" fill="#6D4534"/>
</svg>
