<svg width="64" height="64" viewBox="0 0 64 64" fill="none" xmlns="http://www.w3.org/2000/svg">
<path d="M33.6601 40.3201H29.6601V56.825C28.1634 53.111 24.54 50.4601 20.3001 50.4601H16.1601C15.8401 50.4601 15.6001 50.7201 15.6001 51.0201V51.8601C15.6001 56.6601 19.5001 60.5601 24.1201 60.6001L29.8801 60.6201C29.9482 60.6201 30.014 60.6059 30.0742 60.5801H33.6601V60.5669C33.732 60.6009 33.8131 60.6201 33.9001 60.6201H38.0401C43.4401 60.6201 47.8401 56.3201 48.1201 51.0001C48.1401 50.7001 47.9001 50.4601 47.6201 50.4601L41.8601 50.4801C38.0224 50.5133 34.6815 53.21 33.6601 56.8736V40.3201Z" fill="#86D72F"/>
<path d="M41.6601 38.52H21.6201V26.48C21.6201 19.06 24.5801 11.96 29.8201 6.74L29.8401 6.72C30.8001 5.76 32.3601 5.76 33.3201 6.72C38.6601 11.96 41.6601 19.14 41.6601 26.62V38.52Z" fill="#F70A8D"/>
<path d="M49.28 8.21992C49.28 7.05992 48.54 6.05992 47.62 6.03992C41.08 5.99992 35.46 15.5799 32.98 24.9599C32.54 26.6199 30.74 26.5799 30.3 24.9199C27.84 15.5799 22.24 6.03992 15.72 6.03992C14.78 6.03992 14.02 7.01992 14.02 8.21992V20.6399L14 20.6199C14 21.3999 14.04 22.1799 14.1 22.9399C14.26 25.1399 14.68 29.0999 15.34 31.0399C17.98 39.2199 24.28 43.0999 31.66 43.0999C38.48 43.0999 44.4 40.0199 47.32 32.7999C48.58 29.8799 49.3 24.6799 49.3 21.1199L49.28 8.21992Z" fill="#FF6DC6"/>
</svg>
